<svg width="682" height="566" viewBox="0 0 682 566" fill="none" xmlns="http://www.w3.org/2000/svg">
<g clip-path="url(#clip0_24_110)">
<path d="M263.03 564.35C272.491 564.35 280.16 556.681 280.16 547.22C280.16 537.759 272.491 530.09 263.03 530.09C253.569 530.09 245.9 537.759 245.9 547.22C245.9 556.681 253.569 564.35 263.03 564.35Z" fill="#1D1D1B"/>
<path d="M418.51 565.48C427.971 565.48 435.64 557.811 435.64 548.35C435.64 538.889 427.971 531.22 418.51 531.22C409.049 531.22 401.38 538.889 401.38 548.35C401.38 557.811 409.049 565.48 418.51 565.48Z" fill="#1D1D1B"/>
<path d="M315.26 557.62C318.701 557.62 321.49 554.831 321.49 551.39C321.49 547.949 318.701 545.16 315.26 545.16C311.819 545.16 309.03 547.949 309.03 551.39C309.03 554.831 311.819 557.62 315.26 557.62Z" fill="#F7F5E8"/>
<path d="M339.27 557.37C342.711 557.37 345.5 554.581 345.5 551.14C345.5 547.699 342.711 544.91 339.27 544.91C335.829 544.91 333.04 547.699 333.04 551.14C333.04 554.581 335.829 557.37 339.27 557.37Z" fill="#F7F5E8"/>
<path d="M363.41 557.71C366.851 557.71 369.64 554.921 369.64 551.48C369.64 548.039 366.851 545.25 363.41 545.25C359.969 545.25 357.18 548.039 357.18 551.48C357.18 554.921 359.969 557.71 363.41 557.71Z" fill="#F7F5E8"/>
<path d="M406.22 548.65H429.79" stroke="white" stroke-width="0.75" stroke-miterlimit="10"/>
<path d="M422.52 541.4L429.83 548.71" stroke="white" stroke-width="0.75" stroke-miterlimit="10"/>
<path d="M429.78 548.59L422.47 555.89" stroke="white" stroke-width="0.75" stroke-miterlimit="10"/>
<path d="M275.06 548.69H251.49" stroke="white" stroke-width="0.75" stroke-miterlimit="10"/>
<path d="M258.77 555.94L251.46 548.63" stroke="white" stroke-width="0.75" stroke-miterlimit="10"/>
<path d="M251.51 548.75L258.82 541.44" stroke="white" stroke-width="0.75" stroke-miterlimit="10"/>
<path d="M463.23 464.15C463.23 450.84 467.16 438.45 473.91 428.07L401.96 381.35C386.46 405.17 377.45 433.61 377.45 464.15H463.23Z" fill="#D9E021"/>
<path d="M507.9 401.5L479.97 320.37C447.66 331.49 420.28 353.19 401.97 381.34L473.92 428.06C481.9 415.8 493.83 406.34 507.91 401.49L507.9 401.5Z" fill="#CCE4F8"/>
<path d="M529.47 312.13C512.14 312.13 495.48 315.03 479.96 320.38L507.89 401.51C514.65 399.18 521.91 397.92 529.46 397.91C537.01 397.91 544.27 399.18 551.03 401.51L578.96 320.38C563.44 315.04 546.79 312.13 529.45 312.13H529.47Z" fill="#F7F5E8"/>
<path d="M551.04 401.5L578.97 320.37C611.28 331.49 638.66 353.19 656.97 381.34L585.02 428.06C577.04 415.8 565.11 406.34 551.03 401.49L551.04 401.5Z" fill="#E95017"/>
<path d="M595.72 464.15C595.72 450.84 591.79 438.45 585.04 428.07L656.99 381.35C672.49 405.17 681.5 433.61 681.5 464.15H595.72Z" fill="#70271F"/>
<path d="M624.813 486.258H626.285L629.745 494.71H629.864L633.324 486.258H634.796V496.44H633.643V488.704H633.543L630.361 496.44H629.248L626.066 488.704H625.966V496.44H624.813V486.258ZM637.686 496.44H636.393L640.132 486.258H641.404L645.143 496.44H643.85L640.808 487.869H640.728L637.686 496.44ZM638.163 492.463H643.373V493.556H638.163V492.463ZM646.729 496.44V486.258H647.962V495.346H652.695V496.44H646.729ZM662.798 491.349C662.798 492.423 662.605 493.351 662.217 494.133C661.829 494.915 661.297 495.519 660.621 495.943C659.945 496.367 659.172 496.579 658.304 496.579C657.436 496.579 656.663 496.367 655.987 495.943C655.311 495.519 654.779 494.915 654.391 494.133C654.004 493.351 653.81 492.423 653.81 491.349C653.81 490.275 654.004 489.347 654.391 488.565C654.779 487.783 655.311 487.18 655.987 486.755C656.663 486.331 657.436 486.119 658.304 486.119C659.172 486.119 659.945 486.331 660.621 486.755C661.297 487.18 661.829 487.783 662.217 488.565C662.605 489.347 662.798 490.275 662.798 491.349ZM661.605 491.349C661.605 490.467 661.458 489.723 661.163 489.117C660.871 488.51 660.475 488.051 659.975 487.74C659.477 487.428 658.921 487.272 658.304 487.272C657.688 487.272 657.129 487.428 656.629 487.74C656.132 488.051 655.735 488.51 655.44 489.117C655.149 489.723 655.003 490.467 655.003 491.349C655.003 492.231 655.149 492.975 655.44 493.581C655.735 494.188 656.132 494.647 656.629 494.958C657.129 495.27 657.688 495.426 658.304 495.426C658.921 495.426 659.477 495.27 659.975 494.958C660.475 494.647 660.871 494.188 661.163 493.581C661.458 492.975 661.605 492.231 661.605 491.349Z" fill="#1D1D1B"/>
<path d="M396.583 496.44V486.258H400.143C400.852 486.258 401.437 486.381 401.898 486.626C402.358 486.868 402.701 487.194 402.927 487.605C403.152 488.013 403.265 488.466 403.265 488.963C403.265 489.4 403.187 489.761 403.031 490.046C402.879 490.332 402.676 490.557 402.425 490.723C402.176 490.888 401.906 491.011 401.614 491.091V491.19C401.926 491.21 402.239 491.319 402.554 491.518C402.869 491.717 403.132 492.002 403.344 492.373C403.556 492.744 403.662 493.198 403.662 493.735C403.662 494.246 403.546 494.705 403.314 495.113C403.082 495.52 402.716 495.843 402.216 496.082C401.715 496.321 401.064 496.44 400.262 496.44H396.583ZM397.816 495.346H400.262C401.067 495.346 401.639 495.19 401.977 494.879C402.318 494.564 402.489 494.183 402.489 493.735C402.489 493.391 402.401 493.073 402.226 492.781C402.05 492.486 401.8 492.251 401.475 492.075C401.15 491.896 400.766 491.806 400.322 491.806H397.816V495.346ZM397.816 490.733H400.103C400.474 490.733 400.809 490.66 401.107 490.514C401.409 490.368 401.647 490.162 401.823 489.897C402.002 489.632 402.091 489.321 402.091 488.963C402.091 488.515 401.936 488.136 401.624 487.824C401.313 487.509 400.819 487.352 400.143 487.352H397.816V490.733ZM412.37 486.258H413.603V493C413.603 493.696 413.439 494.317 413.111 494.864C412.786 495.408 412.327 495.837 411.734 496.152C411.141 496.463 410.445 496.619 409.646 496.619C408.847 496.619 408.151 496.463 407.558 496.152C406.964 495.837 406.504 495.408 406.176 494.864C405.851 494.317 405.688 493.696 405.688 493V486.258H406.921V492.9C406.921 493.397 407.031 493.84 407.249 494.228C407.468 494.612 407.78 494.915 408.184 495.137C408.592 495.356 409.079 495.466 409.646 495.466C410.213 495.466 410.7 495.356 411.107 495.137C411.515 494.915 411.827 494.612 412.042 494.228C412.261 493.84 412.37 493.397 412.37 492.9V486.258ZM416.065 496.44V486.258H422.21V487.352H417.298V490.792H421.892V491.886H417.298V495.346H422.29V496.44H416.065ZM432.506 486.258V496.44H431.313L425.765 488.446H425.665V496.44H424.433V486.258H425.626L431.194 494.272H431.293V486.258H432.506ZM443.564 491.349C443.564 492.423 443.371 493.351 442.983 494.133C442.595 494.915 442.063 495.519 441.387 495.943C440.711 496.367 439.939 496.579 439.07 496.579C438.202 496.579 437.43 496.367 436.753 495.943C436.077 495.519 435.545 494.915 435.158 494.133C434.77 493.351 434.576 492.423 434.576 491.349C434.576 490.275 434.77 489.347 435.158 488.565C435.545 487.783 436.077 487.18 436.753 486.755C437.43 486.331 438.202 486.119 439.07 486.119C439.939 486.119 440.711 486.331 441.387 486.755C442.063 487.18 442.595 487.783 442.983 488.565C443.371 489.347 443.564 490.275 443.564 491.349ZM442.371 491.349C442.371 490.467 442.224 489.723 441.929 489.117C441.637 488.51 441.241 488.051 440.741 487.74C440.243 487.428 439.687 487.272 439.07 487.272C438.454 487.272 437.895 487.428 437.395 487.74C436.898 488.051 436.501 488.51 436.207 489.117C435.915 489.723 435.769 490.467 435.769 491.349C435.769 492.231 435.915 492.975 436.207 493.581C436.501 494.188 436.898 494.647 437.395 494.958C437.895 495.27 438.454 495.426 439.07 495.426C439.687 495.426 440.243 495.27 440.741 494.958C441.241 494.647 441.637 494.188 441.929 493.581C442.224 492.975 442.371 492.231 442.371 491.349Z" fill="#1D1D1B"/>
<path d="M461.263 289.928H462.735L466.195 298.38H466.314L469.774 289.928H471.246V300.11H470.093V292.374H469.993L466.811 300.11H465.698L462.516 292.374H462.416V300.11H461.263V289.928ZM473.718 300.11V289.928H479.863V291.022H474.951V294.462H479.545V295.556H474.951V299.016H479.942V300.11H473.718ZM487.653 292.473C487.594 291.97 487.352 291.579 486.928 291.3C486.503 291.022 485.983 290.883 485.366 290.883C484.916 290.883 484.521 290.956 484.183 291.101C483.849 291.247 483.587 291.448 483.398 291.703C483.212 291.958 483.119 292.248 483.119 292.573C483.119 292.845 483.184 293.078 483.313 293.274C483.446 293.466 483.615 293.627 483.82 293.756C484.026 293.882 484.241 293.987 484.467 294.069C484.692 294.149 484.899 294.214 485.088 294.263L486.122 294.542C486.387 294.611 486.682 294.707 487.007 294.83C487.335 294.953 487.648 295.12 487.947 295.332C488.248 295.541 488.497 295.809 488.692 296.138C488.888 296.466 488.986 296.868 488.986 297.346C488.986 297.896 488.842 298.393 488.553 298.837C488.268 299.281 487.851 299.634 487.3 299.896C486.754 300.158 486.089 300.289 485.307 300.289C484.578 300.289 483.946 300.171 483.413 299.936C482.882 299.701 482.465 299.372 482.16 298.951C481.858 298.531 481.688 298.042 481.648 297.485H482.92C482.954 297.869 483.083 298.188 483.308 298.439C483.537 298.688 483.825 298.874 484.173 298.996C484.525 299.116 484.902 299.175 485.307 299.175C485.777 299.175 486.2 299.099 486.575 298.947C486.949 298.791 487.246 298.575 487.465 298.3C487.683 298.022 487.793 297.697 487.793 297.326C487.793 296.988 487.698 296.713 487.509 296.5C487.32 296.288 487.072 296.116 486.764 295.983C486.455 295.851 486.122 295.735 485.764 295.635L484.511 295.277C483.716 295.049 483.086 294.722 482.622 294.298C482.158 293.874 481.926 293.319 481.926 292.633C481.926 292.063 482.08 291.565 482.389 291.141C482.7 290.714 483.118 290.382 483.641 290.147C484.168 289.908 484.757 289.789 485.406 289.789C486.063 289.789 486.646 289.907 487.156 290.142C487.667 290.374 488.071 290.692 488.369 291.096C488.671 291.501 488.83 291.96 488.847 292.473H487.653ZM498.093 300.11H494.95V289.928H498.232C499.219 289.928 500.065 290.132 500.767 290.54C501.47 290.944 502.008 291.526 502.383 292.285C502.758 293.04 502.945 293.945 502.945 294.999C502.945 296.06 502.756 296.973 502.378 297.738C502 298.501 501.45 299.087 500.727 299.498C500.005 299.906 499.127 300.11 498.093 300.11ZM496.183 299.016H498.013C498.855 299.016 499.553 298.854 500.106 298.529C500.66 298.204 501.072 297.742 501.344 297.142C501.616 296.542 501.752 295.828 501.752 294.999C501.752 294.177 501.617 293.469 501.349 292.876C501.08 292.28 500.679 291.822 500.146 291.504C499.612 291.183 498.948 291.022 498.152 291.022H496.183V299.016ZM505.013 300.11V289.928H511.158V291.022H506.246V294.462H510.84V295.556H506.246V299.016H511.237V300.11H505.013ZM517.318 289.928H518.789L522.249 298.38H522.369L525.829 289.928H527.301V300.11H526.147V292.374H526.048L522.866 300.11H521.752L518.571 292.374H518.471V300.11H517.318V289.928ZM530.19 300.11H528.898L532.636 289.928H533.909L537.648 300.11H536.355L533.313 291.539H533.233L530.19 300.11ZM530.668 296.133H535.878V297.226H530.668V296.133ZM539.234 300.11V289.928H542.674C543.469 289.928 544.122 290.064 544.633 290.336C545.143 290.604 545.521 290.974 545.766 291.444C546.012 291.915 546.134 292.45 546.134 293.05C546.134 293.65 546.012 294.182 545.766 294.646C545.521 295.11 545.145 295.475 544.638 295.74C544.131 296.002 543.483 296.133 542.694 296.133H539.91V295.019H542.654C543.198 295.019 543.635 294.939 543.967 294.78C544.301 294.621 544.543 294.396 544.692 294.104C544.845 293.809 544.921 293.458 544.921 293.05C544.921 292.643 544.845 292.286 544.692 291.981C544.54 291.676 544.296 291.441 543.962 291.275C543.627 291.106 543.184 291.022 542.634 291.022H540.467V300.11H539.234ZM544.026 295.536L546.532 300.11H545.1L542.634 295.536H544.026ZM547.851 300.11V299.215L553.339 291.022H547.791V289.928H554.811V290.823L549.322 299.016H554.871V300.11H547.851ZM565.051 295.019C565.051 296.093 564.857 297.021 564.469 297.803C564.082 298.585 563.55 299.188 562.874 299.613C562.197 300.037 561.425 300.249 560.557 300.249C559.688 300.249 558.916 300.037 558.24 299.613C557.564 299.188 557.032 298.585 556.644 297.803C556.256 297.021 556.063 296.093 556.063 295.019C556.063 293.945 556.256 293.017 556.644 292.235C557.032 291.453 557.564 290.849 558.24 290.425C558.916 290.001 559.688 289.789 560.557 289.789C561.425 289.789 562.197 290.001 562.874 290.425C563.55 290.849 564.082 291.453 564.469 292.235C564.857 293.017 565.051 293.945 565.051 295.019ZM563.858 295.019C563.858 294.137 563.71 293.393 563.416 292.787C563.124 292.18 562.728 291.721 562.227 291.41C561.73 291.098 561.173 290.942 560.557 290.942C559.94 290.942 559.382 291.098 558.881 291.41C558.384 291.721 557.988 292.18 557.693 292.787C557.402 293.393 557.256 294.137 557.256 295.019C557.256 295.901 557.402 296.645 557.693 297.251C557.988 297.858 558.384 298.317 558.881 298.628C559.382 298.94 559.94 299.096 560.557 299.096C561.173 299.096 561.73 298.94 562.227 298.628C562.728 298.317 563.124 297.858 563.416 297.251C563.71 296.645 563.858 295.901 563.858 295.019ZM570.883 300.11V299.215L574.244 295.536C574.638 295.105 574.963 294.731 575.218 294.412C575.473 294.091 575.662 293.789 575.785 293.508C575.911 293.223 575.974 292.924 575.974 292.613C575.974 292.255 575.888 291.945 575.715 291.683C575.546 291.421 575.314 291.219 575.019 291.076C574.724 290.934 574.393 290.863 574.025 290.863C573.634 290.863 573.292 290.944 573.001 291.106C572.712 291.265 572.489 291.489 572.33 291.777C572.174 292.066 572.096 292.404 572.096 292.792H570.923C570.923 292.195 571.06 291.671 571.335 291.221C571.61 290.77 571.985 290.419 572.459 290.167C572.936 289.915 573.471 289.789 574.065 289.789C574.661 289.789 575.19 289.915 575.651 290.167C576.111 290.419 576.473 290.758 576.734 291.186C576.996 291.613 577.127 292.089 577.127 292.613C577.127 292.987 577.059 293.353 576.923 293.711C576.791 294.066 576.559 294.462 576.227 294.9C575.899 295.334 575.443 295.864 574.86 296.491L572.573 298.937V299.016H577.306V300.11H570.883ZM582.68 300.249C581.931 300.249 581.293 300.045 580.766 299.638C580.239 299.227 579.837 298.632 579.558 297.853C579.28 297.071 579.141 296.126 579.141 295.019C579.141 293.919 579.28 292.979 579.558 292.2C579.84 291.418 580.244 290.821 580.771 290.41C581.302 289.996 581.938 289.789 582.68 289.789C583.423 289.789 584.058 289.996 584.585 290.41C585.115 290.821 585.519 291.418 585.798 292.2C586.079 292.979 586.22 293.919 586.22 295.019C586.22 296.126 586.081 297.071 585.803 297.853C585.524 298.632 585.121 299.227 584.594 299.638C584.067 300.045 583.429 300.249 582.68 300.249ZM582.68 299.155C583.423 299.155 584 298.797 584.411 298.081C584.822 297.366 585.027 296.345 585.027 295.019C585.027 294.137 584.933 293.387 584.744 292.767C584.558 292.147 584.29 291.675 583.938 291.35C583.59 291.025 583.171 290.863 582.68 290.863C581.945 290.863 581.37 291.226 580.955 291.951C580.541 292.674 580.334 293.697 580.334 295.019C580.334 295.901 580.427 296.65 580.612 297.266C580.798 297.883 581.065 298.352 581.413 298.673C581.764 298.995 582.187 299.155 582.68 299.155ZM588.109 300.11V299.215L591.47 295.536C591.865 295.105 592.189 294.731 592.445 294.412C592.7 294.091 592.889 293.789 593.011 293.508C593.137 293.223 593.2 292.924 593.2 292.613C593.2 292.255 593.114 291.945 592.942 291.683C592.773 291.421 592.541 291.219 592.246 291.076C591.951 290.934 591.619 290.863 591.251 290.863C590.86 290.863 590.519 290.944 590.227 291.106C589.939 291.265 589.715 291.489 589.556 291.777C589.4 292.066 589.322 292.404 589.322 292.792H588.149C588.149 292.195 588.287 291.671 588.562 291.221C588.837 290.77 589.211 290.419 589.685 290.167C590.163 289.915 590.698 289.789 591.291 289.789C591.888 289.789 592.416 289.915 592.877 290.167C593.338 290.419 593.699 290.758 593.961 291.186C594.223 291.613 594.354 292.089 594.354 292.613C594.354 292.987 594.286 293.353 594.15 293.711C594.017 294.066 593.785 294.462 593.454 294.9C593.126 295.334 592.67 295.864 592.087 296.491L589.8 298.937V299.016H594.533V300.11H588.109ZM599.967 300.249C599.549 300.242 599.131 300.163 598.714 300.01C598.296 299.858 597.915 299.601 597.57 299.24C597.226 298.875 596.949 298.383 596.74 297.763C596.531 297.14 596.427 296.358 596.427 295.417C596.427 294.515 596.511 293.716 596.68 293.02C596.849 292.321 597.095 291.733 597.416 291.255C597.738 290.775 598.125 290.41 598.58 290.162C599.037 289.913 599.552 289.789 600.126 289.789C600.696 289.789 601.203 289.903 601.647 290.132C602.094 290.357 602.459 290.672 602.741 291.076C603.023 291.481 603.205 291.947 603.288 292.473H602.075C601.962 292.016 601.743 291.637 601.418 291.335C601.094 291.033 600.663 290.883 600.126 290.883C599.337 290.883 598.715 291.226 598.261 291.912C597.811 292.598 597.584 293.561 597.58 294.8H597.66C597.845 294.518 598.066 294.278 598.321 294.079C598.58 293.877 598.865 293.721 599.176 293.612C599.488 293.503 599.817 293.448 600.166 293.448C600.749 293.448 601.282 293.594 601.766 293.885C602.25 294.174 602.638 294.573 602.93 295.084C603.221 295.591 603.367 296.172 603.367 296.829C603.367 297.458 603.226 298.035 602.945 298.559C602.663 299.079 602.267 299.493 601.756 299.802C601.249 300.107 600.653 300.256 599.967 300.249ZM599.967 299.155C600.384 299.155 600.759 299.051 601.09 298.842C601.425 298.633 601.688 298.353 601.881 298.002C602.076 297.651 602.174 297.259 602.174 296.829C602.174 296.408 602.08 296.025 601.891 295.68C601.705 295.332 601.448 295.055 601.12 294.85C600.795 294.644 600.424 294.542 600.006 294.542C599.692 294.542 599.398 294.605 599.126 294.731C598.855 294.853 598.616 295.022 598.411 295.238C598.208 295.453 598.049 295.7 597.933 295.978C597.817 296.254 597.759 296.544 597.759 296.848C597.759 297.253 597.854 297.631 598.043 297.982C598.235 298.333 598.497 298.617 598.828 298.832C599.163 299.048 599.542 299.155 599.967 299.155Z" fill="#1D1D1B"/>
<path d="M534.57 444.56C533.33 443.74 531.83 443.26 530.23 443.26C528.63 443.26 527.13 443.74 525.89 444.56L529.63 378.53H530.83L534.57 444.56Z" fill="#242424"/>
<path d="M538.06 452.92C538.06 457.21 534.55 460.68 530.22 460.68C525.89 460.68 522.39 457.21 522.39 452.92C522.39 452.22 522.48 451.54 522.66 450.89C523.16 449.06 524.32 447.49 525.88 446.46C527.12 445.64 528.62 445.16 530.22 445.16C531.82 445.16 533.32 445.64 534.56 446.46C536.11 447.48 537.27 449.04 537.77 450.86C537.95 451.51 538.05 452.2 538.05 452.92H538.06Z" fill="#4F4F4F"/>
<path d="M530.22 462.05C535.262 462.05 539.35 457.962 539.35 452.92C539.35 447.878 535.262 443.79 530.22 443.79C525.178 443.79 521.09 447.878 521.09 452.92C521.09 457.962 525.178 462.05 530.22 462.05Z" stroke="#666666" stroke-width="1.98" stroke-miterlimit="10"/>
<path d="M85.78 461.66C85.78 448.35 89.71 435.96 96.46 425.58L24.51 378.86C9.01 402.68 0 431.11 0 461.66H85.78Z" fill="#D9E021"/>
<path d="M130.45 399.01L102.52 317.88C70.21 329 42.83 350.7 24.52 378.85L96.47 425.57C104.45 413.31 116.38 403.85 130.46 399L130.45 399.01Z" fill="#CCE4F8"/>
<path d="M152.02 309.64C134.69 309.64 118.03 312.54 102.51 317.89L130.44 399.02C137.2 396.69 144.46 395.43 152.01 395.42C159.56 395.42 166.82 396.69 173.58 399.02L201.51 317.89C185.99 312.55 169.34 309.64 152 309.64H152.02Z" fill="#F7F5E8"/>
<path d="M173.59 399.01L201.52 317.88C233.83 329 261.21 350.7 279.52 378.85L207.57 425.57C199.59 413.31 187.66 403.85 173.58 399L173.59 399.01Z" fill="#E95017"/>
<path d="M218.27 461.66C218.27 448.35 214.34 435.96 207.59 425.58L279.54 378.86C295.04 402.68 304.05 431.12 304.05 461.66H218.27Z" fill="#70271F"/>
<path d="M245.853 479.448H247.325L250.785 487.9H250.904L254.364 479.448H255.836V489.63H254.682V481.894H254.583L251.401 489.63H250.288L247.106 481.894H247.006V489.63H245.853V479.448ZM258.726 489.63H257.433L261.172 479.448H262.444L266.183 489.63H264.89L261.848 481.059H261.768L258.726 489.63ZM259.203 485.653H264.413V486.746H259.203V485.653ZM267.769 489.63V479.448H269.002V488.536H273.735V489.63H267.769ZM283.838 484.539C283.838 485.613 283.644 486.541 283.257 487.323C282.869 488.105 282.337 488.708 281.661 489.133C280.985 489.557 280.212 489.769 279.344 489.769C278.476 489.769 277.703 489.557 277.027 489.133C276.351 488.708 275.819 488.105 275.431 487.323C275.044 486.541 274.85 485.613 274.85 484.539C274.85 483.465 275.044 482.537 275.431 481.755C275.819 480.973 276.351 480.369 277.027 479.945C277.703 479.521 278.476 479.309 279.344 479.309C280.212 479.309 280.985 479.521 281.661 479.945C282.337 480.369 282.869 480.973 283.257 481.755C283.644 482.537 283.838 483.465 283.838 484.539ZM282.645 484.539C282.645 483.657 282.498 482.913 282.203 482.307C281.911 481.7 281.515 481.241 281.015 480.93C280.517 480.618 279.961 480.462 279.344 480.462C278.728 480.462 278.169 480.618 277.669 480.93C277.171 481.241 276.775 481.7 276.48 482.307C276.189 482.913 276.043 483.657 276.043 484.539C276.043 485.421 276.189 486.165 276.48 486.771C276.775 487.378 277.171 487.837 277.669 488.148C278.169 488.46 278.728 488.616 279.344 488.616C279.961 488.616 280.517 488.46 281.015 488.148C281.515 487.837 281.911 487.378 282.203 486.771C282.498 486.165 282.645 485.421 282.645 484.539Z" fill="#1D1D1B"/>
<path d="M17.6329 489.63V479.448H21.1926C21.9019 479.448 22.4869 479.571 22.9476 479.816C23.4083 480.058 23.7513 480.384 23.9767 480.795C24.2021 481.203 24.3148 481.655 24.3148 482.153C24.3148 482.59 24.2369 482.951 24.0811 483.236C23.9286 483.521 23.7265 483.747 23.4746 483.913C23.226 484.078 22.9559 484.201 22.6642 484.28V484.38C22.9758 484.4 23.289 484.509 23.6038 484.708C23.9187 484.907 24.1822 485.192 24.3943 485.563C24.6064 485.934 24.7125 486.388 24.7125 486.925C24.7125 487.436 24.5965 487.895 24.3645 488.302C24.1325 488.71 23.7662 489.033 23.2658 489.272C22.7653 489.511 22.114 489.63 21.3119 489.63H17.6329ZM18.8659 488.536H21.3119C22.1173 488.536 22.6891 488.38 23.0271 488.069C23.3685 487.754 23.5392 487.373 23.5392 486.925C23.5392 486.581 23.4514 486.262 23.2757 485.971C23.1 485.676 22.8498 485.44 22.525 485.265C22.2002 485.086 21.8157 484.996 21.3716 484.996H18.8659V488.536ZM18.8659 483.922H21.1528C21.524 483.922 21.8588 483.85 22.1571 483.704C22.4587 483.558 22.6973 483.352 22.873 483.087C23.052 482.822 23.1415 482.511 23.1415 482.153C23.1415 481.705 22.9857 481.326 22.6741 481.014C22.3626 480.699 21.8687 480.542 21.1926 480.542H18.8659V483.922ZM33.4202 479.448H34.6532V486.19C34.6532 486.886 34.4891 487.507 34.161 488.054C33.8362 488.597 33.3771 489.027 32.7839 489.342C32.1906 489.653 31.4946 489.809 30.6958 489.809C29.897 489.809 29.201 489.653 28.6077 489.342C28.0145 489.027 27.5538 488.597 27.2256 488.054C26.9008 487.507 26.7384 486.886 26.7384 486.19V479.448H27.9714V486.09C27.9714 486.587 28.0807 487.03 28.2995 487.418C28.5182 487.802 28.8298 488.105 29.2342 488.327C29.6418 488.546 30.129 488.655 30.6958 488.655C31.2626 488.655 31.7498 488.546 32.1575 488.327C32.5651 488.105 32.8767 487.802 33.0921 487.418C33.3109 487.03 33.4202 486.587 33.4202 486.09V479.448ZM37.1154 489.63V479.448H43.2603V480.542H38.3483V483.982H42.9421V485.076H38.3483V488.536H43.3398V489.63H37.1154ZM53.5564 479.448V489.63H52.3632L46.8149 481.636H46.7155V489.63H45.4826V479.448H46.6757L52.2439 487.462H52.3434V479.448H53.5564ZM64.6145 484.539C64.6145 485.613 64.4206 486.541 64.0328 487.323C63.645 488.105 63.1131 488.708 62.4369 489.133C61.7608 489.557 60.9885 489.769 60.1202 489.769C59.2518 489.769 58.4795 489.557 57.8034 489.133C57.1273 488.708 56.5953 488.105 56.2075 487.323C55.8197 486.541 55.6258 485.613 55.6258 484.539C55.6258 483.465 55.8197 482.537 56.2075 481.755C56.5953 480.973 57.1273 480.369 57.8034 479.945C58.4795 479.521 59.2518 479.309 60.1202 479.309C60.9885 479.309 61.7608 479.521 62.4369 479.945C63.1131 480.369 63.645 480.973 64.0328 481.755C64.4206 482.537 64.6145 483.465 64.6145 484.539ZM63.4213 484.539C63.4213 483.657 63.2738 482.913 62.9788 482.307C62.6872 481.7 62.2911 481.241 61.7906 480.93C61.2935 480.618 60.7366 480.462 60.1202 480.462C59.5037 480.462 58.9452 480.618 58.4447 480.93C57.9476 481.241 57.5515 481.7 57.2565 482.307C56.9649 482.913 56.819 483.657 56.819 484.539C56.819 485.421 56.9649 486.165 57.2565 486.771C57.5515 487.378 57.9476 487.837 58.4447 488.148C58.9452 488.46 59.5037 488.616 60.1202 488.616C60.7366 488.616 61.2935 488.46 61.7906 488.148C62.2911 487.837 62.6872 487.378 62.9788 486.771C63.2738 486.165 63.4213 485.421 63.4213 484.539Z" fill="#1D1D1B"/>
<path d="M89.673 285.518H91.1445L94.6048 293.97H94.7241L98.1843 285.518H99.6559V295.7H98.5025V287.964H98.4031L95.2213 295.7H94.1076L90.9258 287.964H90.8264V295.7H89.673V285.518ZM102.128 295.7V285.518H108.273V286.612H103.361V290.052H107.955V291.146H103.361V294.606H108.352V295.7H102.128ZM116.063 288.063C116.004 287.56 115.762 287.168 115.338 286.89C114.913 286.612 114.393 286.472 113.776 286.472C113.326 286.472 112.931 286.545 112.593 286.691C112.258 286.837 111.997 287.038 111.808 287.293C111.622 287.548 111.529 287.838 111.529 288.163C111.529 288.435 111.594 288.668 111.723 288.864C111.856 289.056 112.025 289.217 112.23 289.346C112.436 289.472 112.651 289.576 112.877 289.659C113.102 289.739 113.309 289.803 113.498 289.853L114.532 290.132C114.797 290.201 115.092 290.297 115.417 290.42C115.745 290.543 116.058 290.71 116.357 290.922C116.658 291.131 116.907 291.399 117.102 291.727C117.298 292.056 117.396 292.458 117.396 292.936C117.396 293.486 117.252 293.983 116.963 294.427C116.678 294.871 116.261 295.224 115.71 295.486C115.164 295.748 114.499 295.879 113.717 295.879C112.988 295.879 112.356 295.761 111.823 295.526C111.292 295.29 110.875 294.962 110.57 294.541C110.268 294.12 110.097 293.632 110.058 293.075H111.33C111.364 293.459 111.493 293.777 111.718 294.029C111.947 294.278 112.235 294.463 112.583 294.586C112.935 294.705 113.312 294.765 113.717 294.765C114.187 294.765 114.61 294.689 114.985 294.536C115.359 294.381 115.656 294.165 115.874 293.89C116.093 293.612 116.203 293.287 116.203 292.916C116.203 292.578 116.108 292.302 115.919 292.09C115.73 291.878 115.482 291.706 115.173 291.573C114.865 291.441 114.532 291.325 114.174 291.225L112.921 290.867C112.126 290.639 111.496 290.312 111.032 289.888C110.568 289.464 110.336 288.909 110.336 288.222C110.336 287.652 110.49 287.155 110.798 286.731C111.11 286.303 111.528 285.972 112.051 285.737C112.578 285.498 113.167 285.379 113.816 285.379C114.472 285.379 115.056 285.496 115.566 285.732C116.077 285.964 116.481 286.282 116.779 286.686C117.081 287.091 117.24 287.55 117.257 288.063H116.063ZM126.503 295.7H123.36V285.518H126.642C127.629 285.518 128.475 285.722 129.177 286.129C129.88 286.534 130.418 287.115 130.793 287.874C131.168 288.63 131.355 289.535 131.355 290.589C131.355 291.65 131.166 292.563 130.788 293.328C130.41 294.091 129.86 294.677 129.137 295.088C128.415 295.496 127.537 295.7 126.503 295.7ZM124.593 294.606H126.423C127.265 294.606 127.962 294.444 128.516 294.119C129.07 293.794 129.482 293.332 129.754 292.732C130.026 292.132 130.162 291.418 130.162 290.589C130.162 289.767 130.027 289.059 129.759 288.466C129.49 287.869 129.089 287.412 128.556 287.094C128.022 286.772 127.358 286.612 126.562 286.612H124.593V294.606ZM133.423 295.7V285.518H139.568V286.612H134.656V290.052H139.25V291.146H134.656V294.606H139.647V295.7H133.423ZM145.728 295.7V285.518H151.833V286.612H146.961V290.052H151.375V291.146H146.961V295.7H145.728ZM153.944 295.7V285.518H160.089V286.612H155.177V290.052H159.771V291.146H155.177V294.606H160.169V295.7H153.944ZM162.312 295.7V285.518H165.871C166.581 285.518 167.166 285.641 167.626 285.886C168.087 286.128 168.43 286.454 168.655 286.865C168.881 287.273 168.993 287.725 168.993 288.222C168.993 288.66 168.916 289.021 168.76 289.306C168.607 289.591 168.405 289.817 168.153 289.982C167.905 290.148 167.635 290.271 167.343 290.35V290.45C167.654 290.47 167.968 290.579 168.283 290.778C168.597 290.977 168.861 291.262 169.073 291.633C169.285 292.004 169.391 292.458 169.391 292.995C169.391 293.506 169.275 293.965 169.043 294.372C168.811 294.78 168.445 295.103 167.944 295.342C167.444 295.58 166.793 295.7 165.991 295.7H162.312ZM163.545 294.606H165.991C166.796 294.606 167.368 294.45 167.706 294.139C168.047 293.824 168.218 293.443 168.218 292.995C168.218 292.65 168.13 292.332 167.954 292.041C167.779 291.746 167.528 291.51 167.204 291.335C166.879 291.156 166.494 291.066 166.05 291.066H163.545V294.606ZM163.545 289.992H165.832C166.203 289.992 166.537 289.919 166.836 289.774C167.137 289.628 167.376 289.422 167.552 289.157C167.731 288.892 167.82 288.58 167.82 288.222C167.82 287.775 167.664 287.395 167.353 287.084C167.041 286.769 166.547 286.612 165.871 286.612H163.545V289.992ZM171.417 295.7V285.518H174.857C175.653 285.518 176.306 285.654 176.816 285.926C177.327 286.194 177.705 286.564 177.95 287.034C178.195 287.505 178.318 288.04 178.318 288.64C178.318 289.24 178.195 289.772 177.95 290.236C177.705 290.7 177.328 291.065 176.821 291.33C176.314 291.592 175.666 291.722 174.877 291.722H172.093V290.609H174.838C175.381 290.609 175.819 290.529 176.15 290.37C176.485 290.211 176.727 289.986 176.876 289.694C177.028 289.399 177.105 289.048 177.105 288.64C177.105 288.232 177.028 287.876 176.876 287.571C176.723 287.266 176.48 287.031 176.145 286.865C175.81 286.696 175.368 286.612 174.818 286.612H172.65V295.7H171.417ZM176.21 291.126L178.715 295.7H177.284L174.818 291.126H176.21ZM180.372 295.7V285.518H186.517V286.612H181.605V290.052H186.199V291.146H181.605V294.606H186.597V295.7H180.372ZM188.739 295.7V285.518H192.18C192.975 285.518 193.628 285.654 194.139 285.926C194.649 286.194 195.027 286.564 195.272 287.034C195.517 287.505 195.64 288.04 195.64 288.64C195.64 289.24 195.517 289.772 195.272 290.236C195.027 290.7 194.651 291.065 194.143 291.33C193.636 291.592 192.988 291.722 192.2 291.722H189.415V290.609H192.16C192.703 290.609 193.141 290.529 193.472 290.37C193.807 290.211 194.049 289.986 194.198 289.694C194.351 289.399 194.427 289.048 194.427 288.64C194.427 288.232 194.351 287.876 194.198 287.571C194.046 287.266 193.802 287.031 193.467 286.865C193.133 286.696 192.69 286.612 192.14 286.612H189.972V295.7H188.739ZM193.532 291.126L196.038 295.7H194.606L192.14 291.126H193.532ZM206.285 290.609C206.285 291.683 206.091 292.611 205.704 293.393C205.316 294.175 204.784 294.778 204.108 295.203C203.432 295.627 202.659 295.839 201.791 295.839C200.923 295.839 200.15 295.627 199.474 295.203C198.798 294.778 198.266 294.175 197.878 293.393C197.491 292.611 197.297 291.683 197.297 290.609C197.297 289.535 197.491 288.607 197.878 287.825C198.266 287.043 198.798 286.439 199.474 286.015C200.15 285.591 200.923 285.379 201.791 285.379C202.659 285.379 203.432 285.591 204.108 286.015C204.784 286.439 205.316 287.043 205.704 287.825C206.091 288.607 206.285 289.535 206.285 290.609ZM205.092 290.609C205.092 289.727 204.945 288.983 204.65 288.377C204.358 287.77 203.962 287.311 203.461 286.999C202.964 286.688 202.408 286.532 201.791 286.532C201.175 286.532 200.616 286.688 200.116 286.999C199.618 287.311 199.222 287.77 198.927 288.377C198.636 288.983 198.49 289.727 198.49 290.609C198.49 291.49 198.636 292.235 198.927 292.841C199.222 293.448 199.618 293.907 200.116 294.218C200.616 294.53 201.175 294.686 201.791 294.686C202.408 294.686 202.964 294.53 203.461 294.218C203.962 293.907 204.358 293.448 204.65 292.841C204.945 292.235 205.092 291.49 205.092 290.609ZM212.117 295.7V294.805L215.478 291.126C215.872 290.695 216.197 290.32 216.452 290.002C216.707 289.681 216.896 289.379 217.019 289.097C217.145 288.812 217.208 288.514 217.208 288.203C217.208 287.845 217.122 287.535 216.949 287.273C216.78 287.011 216.548 286.809 216.253 286.666C215.958 286.524 215.627 286.453 215.259 286.453C214.868 286.453 214.527 286.534 214.235 286.696C213.947 286.855 213.723 287.079 213.564 287.367C213.408 287.656 213.33 287.994 213.33 288.382H212.157C212.157 287.785 212.294 287.261 212.569 286.811C212.845 286.36 213.219 286.008 213.693 285.757C214.17 285.505 214.706 285.379 215.299 285.379C215.895 285.379 216.424 285.505 216.885 285.757C217.345 286.008 217.707 286.348 217.969 286.776C218.23 287.203 218.361 287.679 218.361 288.203C218.361 288.577 218.293 288.943 218.158 289.301C218.025 289.656 217.793 290.052 217.461 290.489C217.133 290.924 216.678 291.454 216.094 292.08L213.807 294.526V294.606H218.54V295.7H212.117ZM223.915 295.839C223.166 295.839 222.528 295.635 222.001 295.227C221.474 294.816 221.071 294.221 220.792 293.443C220.514 292.66 220.375 291.716 220.375 290.609C220.375 289.508 220.514 288.569 220.792 287.79C221.074 287.008 221.479 286.411 222.006 286C222.536 285.586 223.172 285.379 223.915 285.379C224.657 285.379 225.292 285.586 225.819 286C226.349 286.411 226.753 287.008 227.032 287.79C227.314 288.569 227.454 289.508 227.454 290.609C227.454 291.716 227.315 292.66 227.037 293.443C226.758 294.221 226.356 294.816 225.829 295.227C225.302 295.635 224.664 295.839 223.915 295.839ZM223.915 294.745C224.657 294.745 225.234 294.387 225.645 293.671C226.056 292.955 226.261 291.935 226.261 290.609C226.261 289.727 226.167 288.976 225.978 288.357C225.792 287.737 225.524 287.265 225.172 286.94C224.824 286.615 224.405 286.453 223.915 286.453C223.179 286.453 222.604 286.815 222.189 287.541C221.775 288.264 221.568 289.286 221.568 290.609C221.568 291.49 221.661 292.239 221.846 292.856C222.032 293.472 222.299 293.941 222.647 294.263C222.998 294.584 223.421 294.745 223.915 294.745ZM229.344 295.7V294.805L232.704 291.126C233.099 290.695 233.424 290.32 233.679 290.002C233.934 289.681 234.123 289.379 234.246 289.097C234.372 288.812 234.434 288.514 234.434 288.203C234.434 287.845 234.348 287.535 234.176 287.273C234.007 287.011 233.775 286.809 233.48 286.666C233.185 286.524 232.854 286.453 232.486 286.453C232.095 286.453 231.753 286.534 231.461 286.696C231.173 286.855 230.949 287.079 230.79 287.367C230.635 287.656 230.557 287.994 230.557 288.382H229.383C229.383 287.785 229.521 287.261 229.796 286.811C230.071 286.36 230.446 286.008 230.92 285.757C231.397 285.505 231.932 285.379 232.525 285.379C233.122 285.379 233.651 285.505 234.111 285.757C234.572 286.008 234.933 286.348 235.195 286.776C235.457 287.203 235.588 287.679 235.588 288.203C235.588 288.577 235.52 288.943 235.384 289.301C235.251 289.656 235.019 290.052 234.688 290.489C234.36 290.924 233.904 291.454 233.321 292.08L231.034 294.526V294.606H235.767V295.7H229.344ZM241.201 295.839C240.783 295.832 240.366 295.753 239.948 295.6C239.53 295.448 239.149 295.191 238.805 294.83C238.46 294.465 238.183 293.973 237.974 293.353C237.765 292.73 237.661 291.948 237.661 291.007C237.661 290.105 237.746 289.306 237.915 288.61C238.084 287.911 238.329 287.323 238.65 286.845C238.972 286.365 239.36 286 239.814 285.752C240.271 285.503 240.787 285.379 241.36 285.379C241.93 285.379 242.437 285.493 242.881 285.722C243.329 285.947 243.693 286.262 243.975 286.666C244.257 287.071 244.439 287.536 244.522 288.063H243.309C243.196 287.606 242.977 287.226 242.653 286.925C242.328 286.623 241.897 286.472 241.36 286.472C240.571 286.472 239.95 286.815 239.496 287.502C239.045 288.188 238.818 289.15 238.814 290.39H238.894C239.08 290.108 239.3 289.868 239.555 289.669C239.814 289.467 240.099 289.311 240.41 289.202C240.722 289.092 241.052 289.038 241.4 289.038C241.983 289.038 242.517 289.184 243.001 289.475C243.484 289.764 243.872 290.163 244.164 290.673C244.456 291.181 244.601 291.762 244.601 292.418C244.601 293.048 244.461 293.625 244.179 294.149C243.897 294.669 243.501 295.083 242.991 295.391C242.484 295.696 241.887 295.846 241.201 295.839ZM241.201 294.745C241.618 294.745 241.993 294.641 242.324 294.432C242.659 294.223 242.923 293.943 243.115 293.592C243.31 293.24 243.408 292.849 243.408 292.418C243.408 291.998 243.314 291.615 243.125 291.27C242.939 290.922 242.682 290.645 242.354 290.44C242.029 290.234 241.658 290.132 241.241 290.132C240.926 290.132 240.632 290.194 240.361 290.32C240.089 290.443 239.85 290.612 239.645 290.828C239.443 291.043 239.283 291.29 239.167 291.568C239.051 291.843 238.993 292.133 238.993 292.438C238.993 292.843 239.088 293.221 239.277 293.572C239.469 293.923 239.731 294.207 240.062 294.422C240.397 294.637 240.777 294.745 241.201 294.745Z" fill="#1D1D1B"/>
<path d="M155.61 437.75C154.37 436.93 152.87 436.45 151.27 436.45C149.67 436.45 148.17 436.93 146.93 437.75L150.67 371.72H151.87L155.61 437.75Z" fill="#242424"/>
<path d="M159.11 446.11C159.11 450.4 155.6 453.87 151.27 453.87C146.94 453.87 143.44 450.4 143.44 446.11C143.44 445.41 143.53 444.73 143.71 444.08C144.21 442.25 145.37 440.68 146.93 439.65C148.17 438.83 149.67 438.35 151.27 438.35C152.87 438.35 154.37 438.83 155.61 439.65C157.16 440.67 158.32 442.23 158.82 444.05C159 444.7 159.1 445.39 159.1 446.11H159.11Z" fill="#4F4F4F"/>
<path d="M151.27 455.24C156.312 455.24 160.4 451.152 160.4 446.11C160.4 441.068 156.312 436.98 151.27 436.98C146.228 436.98 142.14 441.068 142.14 446.11C142.14 451.152 146.228 455.24 151.27 455.24Z" stroke="#666666" stroke-width="1.98" stroke-miterlimit="10"/>
<path d="M463.23 179.53C463.23 166.22 467.16 153.83 473.91 143.45L401.96 96.73C386.46 120.55 377.45 148.99 377.45 179.53H463.23Z" fill="#D9E021"/>
<path d="M507.9 116.88L479.97 35.75C447.66 46.87 420.28 68.57 401.97 96.72L473.92 143.44C481.9 131.18 493.83 121.72 507.91 116.87L507.9 116.88Z" fill="#CCE4F8"/>
<path d="M529.47 27.51C512.14 27.51 495.48 30.41 479.96 35.76L507.89 116.89C514.65 114.56 521.91 113.3 529.46 113.29C537.01 113.29 544.27 114.56 551.03 116.89L578.96 35.76C563.44 30.42 546.79 27.51 529.45 27.51H529.47Z" fill="#F7F5E8"/>
<path d="M551.04 116.88L578.97 35.75C611.28 46.87 638.66 68.57 656.97 96.72L585.02 143.44C577.04 131.18 565.11 121.72 551.03 116.87L551.04 116.88Z" fill="#E95017"/>
<path d="M595.72 179.53C595.72 166.22 591.79 153.83 585.04 143.45L656.99 96.73C672.49 120.55 681.5 148.99 681.5 179.53H595.72Z" fill="#70271F"/>
<path d="M395.083 206.63V196.448H398.643C399.352 196.448 399.937 196.571 400.398 196.816C400.858 197.058 401.201 197.384 401.427 197.795C401.652 198.203 401.765 198.655 401.765 199.153C401.765 199.59 401.687 199.951 401.531 200.236C401.379 200.521 401.176 200.747 400.925 200.913C400.676 201.078 400.406 201.201 400.114 201.28V201.38C400.426 201.4 400.739 201.509 401.054 201.708C401.369 201.907 401.632 202.192 401.844 202.563C402.056 202.934 402.162 203.388 402.162 203.925C402.162 204.436 402.046 204.895 401.814 205.302C401.582 205.71 401.216 206.033 400.716 206.272C400.215 206.511 399.564 206.63 398.762 206.63H395.083ZM396.316 205.536H398.762C399.567 205.536 400.139 205.38 400.477 205.069C400.818 204.754 400.989 204.373 400.989 203.925C400.989 203.581 400.901 203.262 400.726 202.971C400.55 202.676 400.3 202.44 399.975 202.265C399.65 202.086 399.266 201.996 398.822 201.996H396.316V205.536ZM396.316 200.922H398.603C398.974 200.922 399.309 200.85 399.607 200.704C399.909 200.558 400.147 200.352 400.323 200.087C400.502 199.822 400.591 199.511 400.591 199.153C400.591 198.705 400.436 198.326 400.124 198.014C399.813 197.699 399.319 197.542 398.643 197.542H396.316V200.922ZM410.87 196.448H412.103V203.19C412.103 203.886 411.939 204.507 411.611 205.054C411.286 205.597 410.827 206.027 410.234 206.342C409.641 206.653 408.945 206.809 408.146 206.809C407.347 206.809 406.651 206.653 406.058 206.342C405.464 206.027 405.004 205.597 404.676 205.054C404.351 204.507 404.188 203.886 404.188 203.19V196.448H405.421V203.09C405.421 203.587 405.531 204.03 405.749 204.418C405.968 204.802 406.28 205.105 406.684 205.327C407.092 205.546 407.579 205.655 408.146 205.655C408.713 205.655 409.2 205.546 409.607 205.327C410.015 205.105 410.327 204.802 410.542 204.418C410.761 204.03 410.87 203.587 410.87 203.09V196.448ZM414.565 206.63V196.448H420.71V197.542H415.798V200.982H420.392V202.076H415.798V205.536H420.79V206.63H414.565ZM431.006 196.448V206.63H429.813L424.265 198.636H424.165V206.63H422.933V196.448H424.126L429.694 204.462H429.793V196.448H431.006ZM442.064 201.539C442.064 202.613 441.871 203.541 441.483 204.323C441.095 205.105 440.563 205.708 439.887 206.133C439.211 206.557 438.439 206.769 437.57 206.769C436.702 206.769 435.93 206.557 435.253 206.133C434.577 205.708 434.045 205.105 433.658 204.323C433.27 203.541 433.076 202.613 433.076 201.539C433.076 200.465 433.27 199.537 433.658 198.755C434.045 197.973 434.577 197.369 435.253 196.945C435.93 196.521 436.702 196.309 437.57 196.309C438.439 196.309 439.211 196.521 439.887 196.945C440.563 197.369 441.095 197.973 441.483 198.755C441.871 199.537 442.064 200.465 442.064 201.539ZM440.871 201.539C440.871 200.657 440.724 199.913 440.429 199.307C440.137 198.7 439.741 198.241 439.241 197.93C438.743 197.618 438.187 197.462 437.57 197.462C436.954 197.462 436.395 197.618 435.895 197.93C435.398 198.241 435.001 198.7 434.707 199.307C434.415 199.913 434.269 200.657 434.269 201.539C434.269 202.421 434.415 203.165 434.707 203.771C435.001 204.378 435.398 204.837 435.895 205.148C436.395 205.46 436.954 205.616 437.57 205.616C438.187 205.616 438.743 205.46 439.241 205.148C439.741 204.837 440.137 204.378 440.429 203.771C440.724 203.165 440.871 202.421 440.871 201.539Z" fill="#1D1D1B"/>
<path d="M623.303 196.448H624.775L628.235 204.9H628.354L631.814 196.448H633.286V206.63H632.133V198.894H632.033L628.851 206.63H627.738L624.556 198.894H624.456V206.63H623.303V196.448ZM636.176 206.63H634.883L638.622 196.448H639.894L643.633 206.63H642.34L639.298 198.059H639.218L636.176 206.63ZM636.653 202.653H641.863V203.746H636.653V202.653ZM645.219 206.63V196.448H646.452V205.536H651.185V206.63H645.219ZM661.288 201.539C661.288 202.613 661.095 203.541 660.707 204.323C660.319 205.105 659.787 205.708 659.111 206.133C658.435 206.557 657.662 206.769 656.794 206.769C655.926 206.769 655.153 206.557 654.477 206.133C653.801 205.708 653.269 205.105 652.881 204.323C652.494 203.541 652.3 202.613 652.3 201.539C652.3 200.465 652.494 199.537 652.881 198.755C653.269 197.973 653.801 197.369 654.477 196.945C655.153 196.521 655.926 196.309 656.794 196.309C657.662 196.309 658.435 196.521 659.111 196.945C659.787 197.369 660.319 197.973 660.707 198.755C661.095 199.537 661.288 200.465 661.288 201.539ZM660.095 201.539C660.095 200.657 659.948 199.913 659.653 199.307C659.361 198.7 658.965 198.241 658.465 197.93C657.967 197.618 657.411 197.462 656.794 197.462C656.178 197.462 655.619 197.618 655.119 197.93C654.621 198.241 654.225 198.7 653.93 199.307C653.639 199.913 653.493 200.657 653.493 201.539C653.493 202.421 653.639 203.165 653.93 203.771C654.225 204.378 654.621 204.837 655.119 205.148C655.619 205.46 656.178 205.616 656.794 205.616C657.411 205.616 657.967 205.46 658.465 205.148C658.965 204.837 659.361 204.378 659.653 203.771C659.948 203.165 660.095 202.421 660.095 201.539Z" fill="#1D1D1B"/>
<path d="M475.143 1.99811H476.615L480.075 10.4498H480.194L483.654 1.99811H485.126V12.1799H483.973V4.44414H483.873L480.691 12.1799H479.578L476.396 4.44414H476.296V12.1799H475.143V1.99811ZM487.598 12.1799V1.99811H493.743V3.09186H488.831V6.5322H493.425V7.62595H488.831V11.0862H493.822V12.1799H487.598ZM501.533 4.54357C501.474 4.03978 501.232 3.64868 500.808 3.37027C500.383 3.09186 499.863 2.95266 499.247 2.95266C498.796 2.95266 498.401 3.02558 498.063 3.17141C497.729 3.31724 497.467 3.51776 497.278 3.77297C497.092 4.02818 496.999 4.31819 496.999 4.643C496.999 4.91478 497.064 5.14844 497.193 5.34399C497.326 5.53623 497.495 5.69698 497.7 5.82624C497.906 5.95219 498.121 6.05659 498.347 6.13945C498.572 6.21899 498.779 6.28362 498.968 6.33334L500.002 6.61175C500.267 6.68135 500.562 6.77747 500.887 6.9001C501.215 7.02273 501.528 7.19011 501.827 7.40223C502.128 7.61104 502.377 7.87951 502.572 8.20763C502.768 8.53576 502.866 8.93845 502.866 9.41573C502.866 9.96592 502.722 10.4631 502.433 10.9072C502.148 11.3513 501.731 11.7043 501.18 11.9662C500.634 12.228 499.969 12.3589 499.187 12.3589C498.458 12.3589 497.826 12.2412 497.293 12.0059C496.762 11.7706 496.345 11.4425 496.04 11.0216C495.738 10.6006 495.568 10.1117 495.528 9.55493H496.8C496.834 9.9394 496.963 10.2576 497.188 10.5095C497.417 10.7581 497.705 10.9437 498.053 11.0663C498.405 11.1856 498.782 11.2453 499.187 11.2453C499.657 11.2453 500.08 11.169 500.455 11.0166C500.829 10.8608 501.126 10.6454 501.345 10.3703C501.563 10.0919 501.673 9.76705 501.673 9.39584C501.673 9.05777 501.578 8.78268 501.389 8.57056C501.2 8.35844 500.952 8.18609 500.644 8.05351C500.335 7.92094 500.002 7.80493 499.644 7.7055L498.391 7.34755C497.596 7.11885 496.966 6.79238 496.502 6.36814C496.038 5.9439 495.806 5.38874 495.806 4.70266C495.806 4.13258 495.96 3.63542 496.269 3.21118C496.58 2.78362 496.998 2.45219 497.521 2.21686C498.048 1.97823 498.637 1.85891 499.286 1.85891C499.943 1.85891 500.526 1.97657 501.036 2.21189C501.547 2.4439 501.951 2.76208 502.249 3.16644C502.551 3.57079 502.71 4.02984 502.727 4.54357H501.533ZM511.973 12.1799H508.83V1.99811H512.112C513.099 1.99811 513.945 2.20195 514.647 2.60962C515.35 3.01397 515.888 3.59565 516.263 4.35465C516.638 5.11033 516.825 6.01516 516.825 7.06914C516.825 8.12974 516.636 9.04286 516.258 9.80848C515.88 10.5708 515.33 11.1574 514.607 11.5684C513.885 11.9761 513.007 12.1799 511.973 12.1799ZM510.063 11.0862H511.893C512.735 11.0862 513.433 10.9238 513.986 10.599C514.54 10.2742 514.952 9.8118 515.224 9.21189C515.496 8.61199 515.632 7.89773 515.632 7.06914C515.632 6.24717 515.497 5.53954 515.229 4.94627C514.96 4.34968 514.559 3.89229 514.026 3.57411C513.492 3.25261 512.828 3.09186 512.032 3.09186H510.063V11.0862ZM518.893 12.1799V1.99811H525.038V3.09186H520.126V6.5322H524.72V7.62595H520.126V11.0862H525.117V12.1799H518.893ZM531.198 12.1799V1.99811H537.343V3.09186H532.431V6.5322H537.024V7.62595H532.431V11.0862H537.422V12.1799H531.198ZM547.639 1.99811V12.1799H546.446L540.897 4.18561H540.798V12.1799H539.565V1.99811H540.758L546.326 10.0123H546.426V1.99811H547.639ZM550.106 12.1799V1.99811H556.251V3.09186H551.339V6.5322H555.933V7.62595H551.339V11.0862H556.33V12.1799H550.106ZM558.473 12.1799V1.99811H561.913C562.709 1.99811 563.362 2.134 563.872 2.40578C564.383 2.67425 564.76 3.0438 565.006 3.51445C565.251 3.98509 565.374 4.52037 565.374 5.12027C565.374 5.72018 565.251 6.25214 565.006 6.71615C564.76 7.18017 564.384 7.54475 563.877 7.8099C563.37 8.07174 562.722 8.20266 561.933 8.20266H559.149V7.08902H561.894C562.437 7.08902 562.875 7.00948 563.206 6.85039C563.541 6.6913 563.783 6.46592 563.932 6.17425C564.084 5.87927 564.161 5.52794 564.161 5.12027C564.161 4.7126 564.084 4.3563 563.932 4.05138C563.779 3.74646 563.536 3.51113 563.201 3.34541C562.866 3.17638 562.424 3.09186 561.874 3.09186H559.706V12.1799H558.473ZM563.266 7.60607L565.771 12.1799H564.34L561.874 7.60607H563.266ZM576.019 7.08902C576.019 8.16289 575.825 9.09092 575.437 9.87311C575.05 10.6553 574.518 11.2585 573.841 11.6828C573.165 12.107 572.393 12.3191 571.525 12.3191C570.656 12.3191 569.884 12.107 569.208 11.6828C568.532 11.2585 568 10.6553 567.612 9.87311C567.224 9.09092 567.03 8.16289 567.03 7.08902C567.03 6.01516 567.224 5.08713 567.612 4.30493C568 3.52273 568.532 2.91951 569.208 2.49527C569.884 2.07103 570.656 1.85891 571.525 1.85891C572.393 1.85891 573.165 2.07103 573.841 2.49527C574.518 2.91951 575.05 3.52273 575.437 4.30493C575.825 5.08713 576.019 6.01516 576.019 7.08902ZM574.826 7.08902C574.826 6.20739 574.678 5.46331 574.383 4.85678C574.092 4.25024 573.696 3.7912 573.195 3.47965C572.698 3.16809 572.141 3.01232 571.525 3.01232C570.908 3.01232 570.35 3.16809 569.849 3.47965C569.352 3.7912 568.956 4.25024 568.661 4.85678C568.369 5.46331 568.224 6.20739 568.224 7.08902C568.224 7.97065 568.369 8.71473 568.661 9.32127C568.956 9.9278 569.352 10.3868 569.849 10.6984C570.35 11.01 570.908 11.1657 571.525 11.1657C572.141 11.1657 572.698 11.01 573.195 10.6984C573.696 10.3868 574.092 9.9278 574.383 9.32127C574.678 8.71473 574.826 7.97065 574.826 7.08902ZM581.851 12.1799V11.285L585.212 7.60607C585.606 7.1752 585.931 6.80067 586.186 6.48249C586.441 6.16099 586.63 5.85938 586.753 5.57766C586.879 5.29262 586.942 4.99433 586.942 4.68277C586.942 4.32482 586.855 4.01492 586.683 3.75308C586.514 3.49125 586.282 3.28907 585.987 3.14655C585.692 3.00403 585.361 2.93277 584.993 2.93277C584.602 2.93277 584.26 3.01398 583.969 3.17638C583.68 3.33547 583.457 3.55919 583.297 3.84754C583.142 4.1359 583.064 4.47397 583.064 4.86175H581.891C581.891 4.26516 582.028 3.74148 582.303 3.29073C582.578 2.83997 582.953 2.48864 583.427 2.23675C583.904 1.98486 584.439 1.85891 585.033 1.85891C585.629 1.85891 586.158 1.98486 586.618 2.23675C587.079 2.48864 587.44 2.82837 587.702 3.25593C587.964 3.68348 588.095 4.1591 588.095 4.68277C588.095 5.0573 588.027 5.42354 587.891 5.78149C587.759 6.13613 587.527 6.5322 587.195 6.9697C586.867 7.40389 586.411 7.93419 585.828 8.56061L583.541 11.0066V11.0862H588.274V12.1799H581.851ZM593.648 12.3191C592.899 12.3191 592.261 12.1153 591.734 11.7076C591.207 11.2966 590.805 10.7017 590.526 9.92283C590.248 9.14063 590.109 8.19603 590.109 7.08902C590.109 5.98864 590.248 5.04901 590.526 4.27013C590.808 3.48793 591.212 2.89134 591.739 2.48036C592.27 2.06606 592.906 1.85891 593.648 1.85891C594.391 1.85891 595.025 2.06606 595.552 2.48036C596.083 2.89134 596.487 3.48793 596.766 4.27013C597.047 5.04901 597.188 5.98864 597.188 7.08902C597.188 8.19603 597.049 9.14063 596.77 9.92283C596.492 10.7017 596.089 11.2966 595.562 11.7076C595.035 12.1153 594.397 12.3191 593.648 12.3191ZM593.648 11.2254C594.391 11.2254 594.967 10.8674 595.378 10.1515C595.789 9.43561 595.995 8.41478 595.995 7.08902C595.995 6.20739 595.9 5.45668 595.712 4.83689C595.526 4.2171 595.257 3.7448 594.906 3.41999C594.558 3.09518 594.139 2.93277 593.648 2.93277C592.913 2.93277 592.337 3.2957 591.923 4.02155C591.509 4.74409 591.302 5.76658 591.302 7.08902C591.302 7.97065 591.395 8.7197 591.58 9.33618C591.766 9.95266 592.033 10.4216 592.381 10.7431C592.732 11.0646 593.154 11.2254 593.648 11.2254ZM599.077 12.1799V11.285L602.438 7.60607C602.833 7.1752 603.157 6.80067 603.413 6.48249C603.668 6.16099 603.857 5.85938 603.979 5.57766C604.105 5.29262 604.168 4.99433 604.168 4.68277C604.168 4.32482 604.082 4.01492 603.91 3.75308C603.741 3.49125 603.509 3.28907 603.214 3.14655C602.919 3.00403 602.587 2.93277 602.219 2.93277C601.828 2.93277 601.487 3.01398 601.195 3.17638C600.907 3.33547 600.683 3.55919 600.524 3.84754C600.368 4.1359 600.29 4.47397 600.29 4.86175H599.117C599.117 4.26516 599.255 3.74148 599.53 3.29073C599.805 2.83997 600.179 2.48864 600.653 2.23675C601.131 1.98486 601.666 1.85891 602.259 1.85891C602.856 1.85891 603.384 1.98486 603.845 2.23675C604.306 2.48864 604.667 2.82837 604.929 3.25593C605.191 3.68348 605.322 4.1591 605.322 4.68277C605.322 5.0573 605.254 5.42354 605.118 5.78149C604.985 6.13613 604.753 6.5322 604.422 6.9697C604.094 7.40389 603.638 7.93419 603.055 8.56061L600.768 11.0066V11.0862H605.501V12.1799H599.077ZM610.935 12.3191C610.517 12.3125 610.099 12.233 609.682 12.0805C609.264 11.928 608.883 11.6712 608.538 11.3099C608.194 10.9453 607.917 10.4531 607.708 9.83334C607.499 9.21023 607.395 8.42804 607.395 7.48675C607.395 6.58523 607.479 5.78647 607.648 5.09044C607.817 4.39111 608.063 3.8028 608.384 3.32553C608.706 2.84494 609.093 2.48036 609.547 2.23178C610.005 1.9832 610.52 1.85891 611.094 1.85891C611.664 1.85891 612.171 1.97326 612.615 2.20195C613.062 2.42733 613.427 2.74219 613.709 3.14655C613.99 3.55091 614.173 4.01658 614.256 4.54357H613.042C612.93 4.08618 612.711 3.70668 612.386 3.40507C612.061 3.10346 611.631 2.95266 611.094 2.95266C610.305 2.95266 609.683 3.2957 609.229 3.98178C608.779 4.66786 608.551 5.63069 608.548 6.87027H608.628C608.813 6.58855 609.034 6.34826 609.289 6.14939C609.547 5.94721 609.833 5.79144 610.144 5.68206C610.456 5.57269 610.785 5.518 611.133 5.518C611.717 5.518 612.25 5.66383 612.734 5.9555C613.218 6.24385 613.606 6.64324 613.898 7.15365C614.189 7.66076 614.335 8.24243 614.335 8.89868C614.335 9.52842 614.194 10.1051 613.913 10.6288C613.631 11.1492 613.235 11.5635 612.724 11.8717C612.217 12.1766 611.621 12.3258 610.935 12.3191ZM610.935 11.2254C611.352 11.2254 611.727 11.121 612.058 10.9122C612.393 10.7034 612.656 10.4233 612.849 10.072C613.044 9.72065 613.142 9.32955 613.142 8.89868C613.142 8.47775 613.047 8.09494 612.859 7.75024C612.673 7.40223 612.416 7.12548 612.088 6.91999C611.763 6.7145 611.392 6.61175 610.974 6.61175C610.659 6.61175 610.366 6.67472 610.094 6.80067C609.823 6.9233 609.584 7.09234 609.378 7.30777C609.176 7.52321 609.017 7.77013 608.901 8.04854C608.785 8.32363 608.727 8.61364 608.727 8.91857C608.727 9.32292 608.822 9.70076 609.011 10.0521C609.203 10.4034 609.465 10.6868 609.796 10.9022C610.131 11.1177 610.51 11.2254 610.935 11.2254Z" fill="#1D1D1B"/>
<path d="M528.72 172.25C533.762 172.25 537.85 168.162 537.85 163.12C537.85 158.078 533.762 153.99 528.72 153.99C523.678 153.99 519.59 158.078 519.59 163.12C519.59 168.162 523.678 172.25 528.72 172.25Z" stroke="#666666" stroke-width="1.98" stroke-miterlimit="10"/>
<path d="M533.06 154.76C531.82 153.94 530.32 153.46 528.72 153.46C527.12 153.46 525.62 153.94 524.38 154.76L528.12 88.73H529.32L533.06 154.76Z" fill="#242424"/>
<path d="M536.56 163.12C536.56 167.41 533.05 170.88 528.72 170.88C524.39 170.88 520.89 167.41 520.89 163.12C520.89 162.42 520.98 161.74 521.16 161.09C521.66 159.26 522.82 157.69 524.38 156.66C525.62 155.84 527.12 155.36 528.72 155.36C530.32 155.36 531.82 155.84 533.06 156.66C534.61 157.68 535.77 159.24 536.27 161.06C536.45 161.71 536.55 162.4 536.55 163.12H536.56Z" fill="#4F4F4F"/>
<path d="M85.78 172.74C85.78 159.43 89.71 147.04 96.46 136.66L24.51 89.9299C9.01 113.76 0 142.19 0 172.74H85.78Z" fill="#D9E021"/>
<path d="M130.45 110.09L102.52 28.96C70.21 40.08 42.83 61.78 24.52 89.93L96.47 136.65C104.45 124.39 116.38 114.93 130.46 110.08L130.45 110.09Z" fill="#CCE4F8"/>
<path d="M152.02 20.72C134.69 20.72 118.03 23.62 102.51 28.97L130.44 110.1C137.2 107.77 144.46 106.51 152.01 106.5C159.56 106.5 166.82 107.77 173.58 110.1L201.51 28.97C185.99 23.63 169.34 20.72 152 20.72H152.02Z" fill="#F7F5E8"/>
<path d="M173.59 110.09L201.52 28.96C233.83 40.08 261.21 61.78 279.52 89.93L207.57 136.65C199.59 124.39 187.66 114.93 173.58 110.08L173.59 110.09Z" fill="#E95017"/>
<path d="M218.27 172.74C218.27 159.43 214.34 147.04 207.59 136.66L279.54 89.9399C295.04 113.76 304.05 142.2 304.05 172.74H218.27Z" fill="#70271F"/>
<path d="M246.613 198.028H248.085L251.545 206.48H251.664L255.124 198.028H256.596V208.21H255.443V200.474H255.343L252.161 208.21H251.048L247.866 200.474H247.766V208.21H246.613V198.028ZM259.486 208.21H258.193L261.932 198.028H263.204L266.943 208.21H265.65L262.608 199.639H262.528L259.486 208.21ZM259.963 204.233H265.173V205.326H259.963V204.233ZM268.529 208.21V198.028H269.762V207.116H274.495V208.21H268.529ZM284.598 203.119C284.598 204.193 284.405 205.121 284.017 205.903C283.629 206.685 283.097 207.289 282.421 207.713C281.745 208.137 280.972 208.349 280.104 208.349C279.236 208.349 278.463 208.137 277.787 207.713C277.111 207.289 276.579 206.685 276.191 205.903C275.804 205.121 275.61 204.193 275.61 203.119C275.61 202.045 275.804 201.117 276.191 200.335C276.579 199.553 277.111 198.95 277.787 198.525C278.463 198.101 279.236 197.889 280.104 197.889C280.972 197.889 281.745 198.101 282.421 198.525C283.097 198.95 283.629 199.553 284.017 200.335C284.405 201.117 284.598 202.045 284.598 203.119ZM283.405 203.119C283.405 202.237 283.258 201.493 282.963 200.887C282.671 200.28 282.275 199.821 281.775 199.51C281.277 199.198 280.721 199.042 280.104 199.042C279.488 199.042 278.929 199.198 278.429 199.51C277.931 199.821 277.535 200.28 277.24 200.887C276.949 201.493 276.803 202.237 276.803 203.119C276.803 204.001 276.949 204.745 277.24 205.351C277.535 205.958 277.931 206.417 278.429 206.728C278.929 207.04 279.488 207.196 280.104 207.196C280.721 207.196 281.277 207.04 281.775 206.728C282.275 206.417 282.671 205.958 282.963 205.351C283.258 204.745 283.405 204.001 283.405 203.119Z" fill="#1D1D1B"/>
<path d="M18.3829 208.21V198.028H21.9426C22.6519 198.028 23.2369 198.151 23.6976 198.396C24.1583 198.638 24.5013 198.964 24.7267 199.375C24.9521 199.783 25.0648 200.236 25.0648 200.733C25.0648 201.17 24.9869 201.531 24.8311 201.816C24.6786 202.102 24.4765 202.327 24.2246 202.493C23.976 202.658 23.7059 202.781 23.4142 202.861V202.96C23.7258 202.98 24.039 203.089 24.3538 203.288C24.6687 203.487 24.9322 203.772 25.1443 204.143C25.3564 204.514 25.4625 204.968 25.4625 205.505C25.4625 206.016 25.3465 206.475 25.1145 206.883C24.8825 207.29 24.5162 207.613 24.0158 207.852C23.5153 208.091 22.864 208.21 22.0619 208.21H18.3829ZM19.6159 207.116H22.0619C22.8673 207.116 23.4391 206.96 23.7771 206.649C24.1185 206.334 24.2892 205.953 24.2892 205.505C24.2892 205.161 24.2014 204.843 24.0257 204.551C23.85 204.256 23.5998 204.021 23.275 203.845C22.9502 203.666 22.5657 203.576 22.1216 203.576H19.6159V207.116ZM19.6159 202.503H21.9028C22.274 202.503 22.6088 202.43 22.9071 202.284C23.2087 202.138 23.4473 201.932 23.623 201.667C23.802 201.402 23.8915 201.091 23.8915 200.733C23.8915 200.285 23.7357 199.906 23.4241 199.594C23.1126 199.279 22.6187 199.122 21.9426 199.122H19.6159V202.503ZM34.1702 198.028H35.4032V204.77C35.4032 205.466 35.2391 206.087 34.911 206.634C34.5862 207.178 34.1271 207.607 33.5339 207.922C32.9406 208.233 32.2446 208.389 31.4458 208.389C30.647 208.389 29.951 208.233 29.3577 207.922C28.7645 207.607 28.3038 207.178 27.9756 206.634C27.6508 206.087 27.4884 205.466 27.4884 204.77V198.028H28.7214V204.67C28.7214 205.167 28.8307 205.61 29.0495 205.998C29.2682 206.382 29.5798 206.685 29.9842 206.907C30.3918 207.126 30.879 207.236 31.4458 207.236C32.0126 207.236 32.4998 207.126 32.9075 206.907C33.3151 206.685 33.6267 206.382 33.8421 205.998C34.0609 205.61 34.1702 205.167 34.1702 204.67V198.028ZM37.8654 208.21V198.028H44.0103V199.122H39.0983V202.562H43.6921V203.656H39.0983V207.116H44.0898V208.21H37.8654ZM54.3064 198.028V208.21H53.1132L47.5649 200.216H47.4655V208.21H46.2326V198.028H47.4257L52.9939 206.042H53.0934V198.028H54.3064ZM65.3645 203.119C65.3645 204.193 65.1706 205.121 64.7828 205.903C64.395 206.685 63.8631 207.289 63.1869 207.713C62.5108 208.137 61.7385 208.349 60.8702 208.349C60.0018 208.349 59.2295 208.137 58.5534 207.713C57.8773 207.289 57.3453 206.685 56.9575 205.903C56.5697 205.121 56.3758 204.193 56.3758 203.119C56.3758 202.045 56.5697 201.117 56.9575 200.335C57.3453 199.553 57.8773 198.95 58.5534 198.525C59.2295 198.101 60.0018 197.889 60.8702 197.889C61.7385 197.889 62.5108 198.101 63.1869 198.525C63.8631 198.95 64.395 199.553 64.7828 200.335C65.1706 201.117 65.3645 202.045 65.3645 203.119ZM64.1713 203.119C64.1713 202.237 64.0238 201.493 63.7288 200.887C63.4372 200.28 63.0411 199.821 62.5406 199.51C62.0435 199.198 61.4866 199.042 60.8702 199.042C60.2537 199.042 59.6952 199.198 59.1947 199.51C58.6976 199.821 58.3015 200.28 58.0065 200.887C57.7149 201.493 57.569 202.237 57.569 203.119C57.569 204.001 57.7149 204.745 58.0065 205.351C58.3015 205.958 58.6976 206.417 59.1947 206.728C59.6952 207.04 60.2537 207.196 60.8702 207.196C61.4866 207.196 62.0435 207.04 62.5406 206.728C63.0411 206.417 63.4372 205.958 63.7288 205.351C64.0238 204.745 64.1713 204.001 64.1713 203.119Z" fill="#1D1D1B"/>
<path d="M138.723 12.9399V2.75812H139.956V7.29221H145.385V2.75812H146.618V12.9399H145.385V8.38596H139.956V12.9399H138.723ZM157.677 7.84903C157.677 8.9229 157.483 9.85093 157.095 10.6331C156.708 11.4153 156.176 12.0185 155.5 12.4428C154.823 12.867 154.051 13.0791 153.183 13.0791C152.314 13.0791 151.542 12.867 150.866 12.4428C150.19 12.0185 149.658 11.4153 149.27 10.6331C148.882 9.85093 148.688 8.9229 148.688 7.84903C148.688 6.77517 148.882 5.84714 149.27 5.06494C149.658 4.28274 150.19 3.67952 150.866 3.25528C151.542 2.83104 152.314 2.61892 153.183 2.61892C154.051 2.61892 154.823 2.83104 155.5 3.25528C156.176 3.67952 156.708 4.28274 157.095 5.06494C157.483 5.84714 157.677 6.77517 157.677 7.84903ZM156.484 7.84903C156.484 6.9674 156.336 6.22332 156.041 5.61679C155.75 5.01025 155.354 4.55121 154.853 4.23966C154.356 3.9281 153.799 3.77233 153.183 3.77233C152.566 3.77233 152.008 3.9281 151.507 4.23966C151.01 4.55121 150.614 5.01025 150.319 5.61679C150.028 6.22332 149.882 6.9674 149.882 7.84903C149.882 8.73066 150.028 9.47474 150.319 10.0813C150.614 10.6878 151.01 11.1469 151.507 11.4584C152.008 11.77 152.566 11.9257 153.183 11.9257C153.799 11.9257 154.356 11.77 154.853 11.4584C155.354 11.1469 155.75 10.6878 156.041 10.0813C156.336 9.47474 156.484 8.73066 156.484 7.84903ZM158.397 2.75812H159.809L162.633 7.51096H162.752L165.576 2.75812H166.988L163.309 8.74392V12.9399H162.076V8.74392L158.397 2.75812Z" fill="#1D1D1B"/>
<path d="M156.37 156.33C155.13 155.51 153.63 155.03 152.03 155.03C150.43 155.03 148.93 155.51 147.69 156.33L151.43 90.3H152.63L156.37 156.33Z" fill="#242424"/>
<path d="M152.02 173.82C157.062 173.82 161.15 169.732 161.15 164.69C161.15 159.648 157.062 155.56 152.02 155.56C146.978 155.56 142.89 159.648 142.89 164.69C142.89 169.732 146.978 173.82 152.02 173.82Z" stroke="#666666" stroke-width="1.98" stroke-miterlimit="10"/>
<path d="M159.86 164.69C159.86 168.98 156.35 172.45 152.02 172.45C147.69 172.45 144.19 168.98 144.19 164.69C144.19 163.99 144.28 163.31 144.46 162.66C144.96 160.83 146.12 159.26 147.68 158.23C148.92 157.41 150.42 156.93 152.02 156.93C153.62 156.93 155.12 157.41 156.36 158.23C157.91 159.25 159.07 160.81 159.57 162.63C159.75 163.28 159.85 163.97 159.85 164.69H159.86Z" fill="#4F4F4F"/>
</g>
<defs>
<clipPath id="clip0_24_110">
<rect width="681.5" height="565.48" fill="white"/>
</clipPath>
</defs>
</svg>
